<?xml version="1.0" standalone="no"?>
<!DOCTYPE svg PUBLIC "-//W3C//DTD SVG 20010904//EN"
 "http://www.w3.org/TR/2001/REC-SVG-20010904/DTD/svg10.dtd">
<svg version="1.0" xmlns="http://www.w3.org/2000/svg"
 width="500.000000pt" height="500.000000pt" viewBox="0 0 500.000000 500.000000"
 preserveAspectRatio="xMidYMid meet">
<metadata>
Created by potrace 1.14, written by Peter Selinger 2001-2017
</metadata>
<g transform="translate(0.000000,500.000000) scale(0.100000,-0.100000)"
fill="#000000" stroke="none">
<path d="M2392 2943 c-6 -21 -41 -105 -76 -188 l-64 -150 25 -3 c41 -6 48 2
83 92 18 48 37 83 41 79 4 -4 21 -44 37 -88 l29 -80 53 -3 c40 -2 51 0 47 10
-58 142 -149 354 -156 361 -4 4 -13 -9 -19 -30z"/>
<path d="M3095 2949 c95 -33 105 -55 105 -223 l0 -126 50 0 50 0 0 155 0 155
118 0 c93 0 125 -4 159 -19 76 -35 123 -129 123 -246 l0 -45 55 0 c53 0 54 0
60 33 8 41 -8 135 -30 177 -25 48 -91 107 -143 126 -40 15 -87 18 -312 21
-192 1 -257 -1 -235 -8z"/>
<path d="M1070 2940 c19 -5 47 -22 62 -39 28 -31 28 -33 28 -166 l0 -135 49 0
49 0 4 140 c3 136 4 140 30 166 14 15 44 30 65 34 22 5 -36 8 -142 8 -115 0
-167 -3 -145 -8z"/>
<path d="M1482 2543 c-7 -13 -9 -23 -5 -23 4 0 2 -5 -5 -12 -7 -7 -12 -21 -12
-32 0 -17 2 -18 9 -6 6 8 7 18 5 22 -3 4 0 8 7 8 8 0 10 -24 7 -85 -2 -47 -1
-80 4 -73 6 10 8 10 8 0 0 -7 5 -10 11 -6 8 4 8 9 0 17 -13 13 -14 71 -2 114
8 27 6 34 -12 46 -21 14 -21 15 -2 14 11 -1 22 -5 25 -9 3 -4 11 1 17 11 13
20 1 24 -24 8 -7 -4 -13 0 -15 10 -3 16 -5 15 -16 -4z"/>
<path d="M1828 2553 c7 -3 16 -2 19 1 4 3 -2 6 -13 5 -11 0 -14 -3 -6 -6z"/>
<path d="M3250 2555 c0 -6 6 -17 13 -24 10 -12 8 -13 -8 -7 -17 6 -17 4 4 -18
27 -29 43 -34 35 -11 -4 8 -11 12 -16 9 -6 -4 -9 -1 -6 7 3 8 10 14 16 14 7 0
12 3 12 8 0 4 0 10 0 14 0 4 -5 2 -12 -5 -9 -9 -14 -7 -24 6 -8 9 -14 12 -14
7z"/>
<path d="M3608 2550 c13 -6 22 -19 23 -32 1 -18 2 -19 6 -5 6 22 -14 47 -36
46 -11 0 -9 -3 7 -9z"/>
<path d="M2355 2540 c-3 -6 1 -7 9 -4 18 7 21 14 7 14 -6 0 -13 -4 -16 -10z"/>
<path d="M806 2533 c6 -4 14 -15 17 -23 5 -11 6 -9 4 4 -1 11 -9 21 -17 23
-10 3 -11 2 -4 -4z"/>
<path d="M976 2533 c6 -4 14 -15 17 -23 5 -11 6 -9 4 4 -1 11 -9 21 -17 23
-10 3 -11 2 -4 -4z"/>
<path d="M1106 2524 c-16 -41 -10 -44 87 -42 l92 2 -88 3 c-89 4 -89 4 -83 28
7 28 2 34 -8 9z"/>
<path d="M1135 2530 c-3 -5 -1 -10 4 -10 6 0 11 5 11 10 0 6 -2 10 -4 10 -3 0
-8 -4 -11 -10z"/>
<path d="M1185 2530 c-3 -5 -1 -10 4 -10 6 0 11 5 11 10 0 6 -2 10 -4 10 -3 0
-8 -4 -11 -10z"/>
<path d="M1260 2531 c0 -6 4 -13 10 -16 6 -3 7 1 4 9 -7 18 -14 21 -14 7z"/>
<path d="M1584 2529 c-2 -3 33 -6 77 -6 44 -1 77 2 74 5 -8 8 -146 9 -151 1z"/>
<path d="M1862 2520 c0 -14 2 -19 5 -12 2 6 2 18 0 25 -3 6 -5 1 -5 -13z"/>
<path d="M1952 2503 c-18 -34 -18 -41 -5 -82 8 -26 17 -52 19 -59 2 -7 8 -10
14 -7 6 4 5 14 -4 28 -24 38 -29 83 -11 116 20 40 36 39 58 -1 18 -34 14 -67
-12 -116 -8 -15 -8 -23 1 -28 6 -4 8 -3 4 4 -3 6 -2 13 2 16 5 3 15 26 22 51
11 41 11 50 -6 80 -26 48 -57 47 -82 -2z"/>
<path d="M2092 2498 c-2 -47 -1 -48 28 -48 29 0 30 1 28 48 l-1 47 -4 -42 c-3
-34 -8 -43 -23 -43 -15 0 -20 9 -23 43 l-4 42 -1 -47z"/>
<path d="M2195 2530 c-4 -6 -4 -14 -1 -17 3 -4 6 -1 6 5 0 7 5 12 10 12 14 0
12 -28 -2 -33 -7 -2 -9 -8 -5 -13 10 -10 28 16 24 35 -3 19 -23 25 -32 11z"/>
<path d="M2277 2533 c-9 -9 -9 -41 1 -46 4 -3 7 8 7 24 0 16 0 29 -1 29 0 0
-4 -3 -7 -7z"/>
<path d="M2315 2530 c3 -5 8 -10 11 -10 2 0 4 5 4 10 0 6 -5 10 -11 10 -5 0
-7 -4 -4 -10z"/>
<path d="M2573 2533 c9 -2 17 -11 17 -19 0 -17 -12 -18 -29 -1 -11 10 -12 8
-3 -9 8 -15 8 -24 0 -32 -6 -6 -7 -19 -3 -29 9 -22 11 -66 3 -79 -4 -5 2 -10
12 -10 11 0 18 7 17 17 -1 10 -5 15 -9 13 -4 -3 -8 5 -8 18 0 18 2 20 10 8 5
-8 10 -11 10 -7 0 4 -7 19 -16 32 -16 24 -11 51 7 40 5 -4 9 -1 9 6 0 6 8 18
18 26 9 8 12 12 6 9 -7 -3 -14 1 -18 9 -3 8 -13 14 -23 14 -17 -1 -17 -2 0 -6z"/>
<path d="M2721 2522 c-7 -13 -3 -23 16 -40 14 -12 23 -16 20 -9 -3 8 -1 19 5
25 14 14 3 42 -16 42 -9 0 -20 -8 -25 -18z m39 -6 c0 -8 -8 -14 -19 -13 -11 0
-17 6 -14 14 7 18 33 17 33 -1z"/>
<path d="M3036 2518 l6 -28 -85 0 c-73 0 -86 3 -90 18 -4 13 -5 11 -6 -5 -1
-22 2 -23 94 -23 84 0 95 2 95 18 0 9 -5 24 -10 32 -8 11 -9 8 -4 -12z"/>
<path d="M3347 2528 c-7 -4 28 -7 76 -6 48 0 85 3 82 6 -8 8 -145 8 -158 0z"/>
<path d="M3733 2528 c-32 -40 -34 -58 -17 -111 9 -29 20 -56 25 -61 8 -9 6 8
-4 34 -24 66 -25 77 -5 109 11 17 24 31 28 31 4 0 17 -14 28 -31 20 -32 19
-43 -5 -109 -10 -26 -12 -43 -4 -34 5 5 16 33 26 62 16 50 16 54 -2 85 -20 34
-53 46 -70 25z"/>
<path d="M3963 2500 c1 -23 4 -34 9 -27 4 7 8 8 9 2 0 -5 5 3 9 19 10 33 6 46
-15 46 -10 0 -13 -12 -12 -40z m27 21 c0 -6 -4 -13 -10 -16 -5 -3 -10 1 -10 9
0 9 5 16 10 16 6 0 10 -4 10 -9z"/>
<path d="M4088 2513 c5 -21 7 -23 10 -9 2 10 0 22 -6 28 -6 6 -7 0 -4 -19z"/>
<path d="M1044 2516 c-3 -8 -4 -23 -1 -33 3 -11 5 -6 6 12 1 23 3 27 11 15 6
-9 10 -10 10 -3 0 19 -20 26 -26 9z"/>
<path d="M2810 2510 c0 -11 2 -20 4 -20 2 0 6 9 9 20 3 11 1 20 -4 20 -5 0 -9
-9 -9 -20z"/>
<path d="M790 2518 c0 -4 9 -22 20 -40 11 -18 20 -28 20 -23 0 6 -9 24 -20 40
-11 17 -20 27 -20 23z"/>
<path d="M946 2512 c-7 -12 -6 -13 15 -16 6 0 17 -12 24 -26 8 -14 14 -20 15
-13 0 21 -46 68 -54 55z"/>
<path d="M1390 2506 c0 -8 4 -17 9 -21 6 -3 9 4 8 15 -1 23 -17 28 -17 6z"/>
<path d="M1792 2490 c0 -19 2 -27 5 -17 2 9 2 25 0 35 -3 9 -5 1 -5 -18z"/>
<path d="M2629 2503 c-13 -16 -12 -17 4 -4 16 13 21 21 13 21 -2 0 -10 -8 -17
-17z"/>
<path d="M2659 2503 c-13 -16 -12 -17 4 -4 16 13 21 21 13 21 -2 0 -10 -8 -17
-17z"/>
<path d="M3150 2516 c0 -2 7 -9 15 -16 12 -10 15 -10 15 4 0 9 -7 16 -15 16
-8 0 -15 -2 -15 -4z"/>
<path d="M2830 2449 c0 -65 -19 -75 -22 -11 l-1 37 -4 -33 c-3 -21 1 -40 10
-50 8 -10 17 -24 20 -32 3 -8 6 22 6 68 1 45 -1 82 -4 82 -3 0 -5 -27 -5 -61z"/>
<path d="M3230 2494 c0 -8 5 -12 10 -9 6 4 8 11 5 16 -9 14 -15 11 -15 -7z"/>
<path d="M3861 2483 c-1 -30 2 -33 27 -32 22 1 23 2 5 6 -14 3 -23 13 -26 31
-4 24 -4 24 -6 -5z"/>
<path d="M1370 2489 c0 -7 8 -18 18 -26 15 -13 16 -14 0 -9 -12 3 -22 -4 -32
-24 -13 -26 -12 -31 2 -42 15 -11 15 -11 6 2 -15 20 5 57 29 52 23 -5 22 13
-3 38 -11 11 -20 15 -20 9z"/>
<path d="M2317 2486 c-3 -8 -21 -19 -39 -25 -31 -9 -32 -9 -6 -10 25 -1 27 -5
31 -48 l3 -48 2 47 c2 40 5 47 25 51 22 4 22 4 -2 6 -20 1 -22 3 -11 16 7 9
11 18 8 21 -3 3 -8 -2 -11 -10z"/>
<path d="M2418 2493 c6 -2 18 -2 25 0 6 3 1 5 -13 5 -14 0 -19 -2 -12 -5z"/>
<path d="M2485 2490 c-4 -6 -1 -9 7 -8 7 2 12 -3 11 -9 -2 -7 2 -13 7 -13 14
0 12 16 -4 29 -10 8 -16 9 -21 1z"/>
<path d="M3091 2495 c-7 -25 2 -71 17 -85 14 -13 15 -13 5 0 -6 8 -13 33 -16
55 -2 22 -5 36 -6 30z"/>
<path d="M3145 2490 c3 -5 1 -10 -4 -10 -6 0 -11 -8 -11 -17 0 -15 2 -16 10
-3 14 23 22 6 10 -26 -10 -28 -9 -28 6 -9 15 18 16 18 10 2 -3 -10 -6 -35 -6
-54 0 -34 -1 -35 -35 -31 -19 2 -35 0 -35 -5 0 -4 19 -7 43 -5 l42 3 2 54 c1
48 -17 111 -33 111 -3 0 -2 -4 1 -10z"/>
<path d="M3375 2489 c-48 -7 -29 -11 44 -9 30 1 57 -3 60 -8 4 -6 11 -5 18 3
10 11 3 14 -35 17 -26 1 -65 0 -87 -3z"/>
<path d="M3563 2450 c0 -30 2 -43 4 -27 2 15 2 39 0 55 -2 15 -4 2 -4 -28z"/>
<path d="M4188 2493 c7 -3 16 -2 19 1 4 3 -2 6 -13 5 -11 0 -14 -3 -6 -6z"/>
<path d="M1613 2483 c26 -2 68 -2 95 0 26 2 4 3 -48 3 -52 0 -74 -1 -47 -3z"/>
<path d="M1872 2465 c0 -16 2 -22 5 -12 2 9 2 23 0 30 -3 6 -5 -1 -5 -18z"/>
<path d="M3622 2465 c0 -16 2 -22 5 -12 2 9 2 23 0 30 -3 6 -5 -1 -5 -18z"/>
<path d="M790 2470 c-1 -8 -1 -19 0 -25 2 -5 2 -22 1 -36 -1 -16 9 -34 26 -50
l28 -24 -22 26 c-13 14 -23 34 -23 45 1 19 1 19 16 -1 16 -19 16 -19 9 5 -4
14 -11 27 -15 30 -4 3 -10 14 -13 25 -3 13 -5 15 -7 5z"/>
<path d="M956 2471 c-4 -5 -3 -17 1 -27 4 -10 7 -34 6 -52 0 -18 2 -30 5 -27
3 2 12 -1 21 -7 12 -10 12 -8 -1 8 -10 11 -18 29 -18 40 1 18 1 18 16 -1 16
-19 16 -19 9 5 -4 14 -14 28 -21 33 -7 4 -11 14 -8 22 7 16 -1 21 -10 6z"/>
<path d="M1517 2459 c-4 -16 -3 -18 9 -8 16 13 19 29 5 29 -5 0 -11 -9 -14
-21z"/>
<path d="M2724 2465 c-4 -8 -1 -22 5 -29 9 -10 9 -16 1 -21 -6 -4 -8 -16 -5
-26 4 -11 1 -28 -7 -37 -12 -15 -11 -16 5 -3 14 11 20 11 34 0 15 -13 15 -12
5 7 -6 12 -8 25 -4 29 4 5 2 5 -5 1 -16 -9 -28 13 -14 27 8 8 11 7 11 -3 0 -7
3 -10 7 -7 3 4 -2 16 -12 27 -9 10 -15 26 -12 35 4 8 4 15 1 15 -2 0 -7 -7
-10 -15z"/>
<path d="M4056 2469 c2 -4 -6 -10 -18 -12 -13 -2 2 -4 32 -4 30 0 45 2 32 4
-12 2 -20 8 -18 12 3 4 -4 7 -14 7 -10 0 -17 -3 -14 -7z"/>
<path d="M2402 2458 c-7 -7 -12 -16 -12 -22 0 -5 6 -3 13 6 6 9 21 18 32 21
20 5 20 5 0 6 -12 0 -26 -4 -33 -11z"/>
<path d="M3271 2463 c-2 -20 16 -24 30 -5 13 15 12 16 -3 4 -13 -10 -17 -10
-21 0 -4 9 -6 9 -6 1z"/>
<path d="M4169 2453 c-12 -16 -12 -17 1 -7 8 7 24 14 35 17 19 4 19 5 -1 6
-12 0 -28 -7 -35 -16z"/>
<path d="M4277 2464 c-4 -4 -7 -28 -6 -53 l1 -46 9 45 c9 48 8 66 -4 54z"/>
<path d="M1031 2439 c0 -16 8 -33 22 -45 22 -19 22 -19 5 1 -9 11 -18 31 -21
45 l-4 25 -2 -26z"/>
<path d="M1721 2444 c0 -11 3 -14 6 -6 3 7 2 16 -1 19 -3 4 -6 -2 -5 -13z"/>
<path d="M1852 2435 c0 -16 2 -22 5 -12 2 9 2 23 0 30 -3 6 -5 -1 -5 -18z"/>
<path d="M2200 2445 c0 -8 5 -15 10 -15 6 0 10 7 10 15 0 8 -4 15 -10 15 -5 0
-10 -7 -10 -15z"/>
<path d="M3642 2435 c0 -16 2 -22 5 -12 2 9 2 23 0 30 -3 6 -5 -1 -5 -18z"/>
<path d="M3975 2451 c-3 -5 -2 -12 3 -15 5 -3 9 1 9 9 0 17 -3 19 -12 6z"/>
<path d="M855 2440 c-3 -6 1 -7 9 -4 18 7 21 14 7 14 -6 0 -13 -4 -16 -10z"/>
<path d="M1105 2440 c-2 -3 36 -6 86 -6 49 0 89 3 89 6 0 8 -170 8 -175 0z"/>
<path d="M2622 2438 c-7 -7 -11 -21 -11 -32 1 -21 1 -21 6 -1 3 11 10 26 15
33 13 15 6 16 -10 0z"/>
<path d="M2875 2439 c-2 -3 36 -5 85 -5 49 0 87 2 84 5 -6 7 -165 7 -169 0z"/>
<path d="M4060 2402 c0 -23 5 -42 10 -42 7 0 8 14 4 38 -9 51 -14 53 -14 4z"/>
<path d="M1388 2385 c4 -44 4 -45 -27 -45 -24 0 -29 3 -25 18 5 14 4 15 -5 2
-5 -8 -6 -19 -2 -23 10 -10 77 -5 74 6 -2 4 -3 25 -3 47 0 22 -3 40 -8 40 -4
0 -6 -20 -4 -45z"/>
<path d="M2504 2415 c-3 -8 -4 -20 -2 -27 3 -7 7 -1 10 15 6 29 1 36 -8 12z"/>
<path d="M3361 2423 c-1 -6 -9 -14 -18 -16 -10 -3 -1 -5 20 -6 46 -1 65 -17
60 -50 -3 -23 -2 -22 7 4 7 21 6 31 -3 37 -7 4 13 8 43 9 30 0 48 3 40 6 -8 3
-18 11 -22 17 -5 8 -8 7 -8 -1 0 -9 -18 -13 -54 -13 -34 0 -56 5 -59 13 -4 8
-6 8 -6 0z"/>
<path d="M3966 2413 c3 -12 0 -33 -6 -45 -10 -21 -10 -22 4 -5 14 18 15 18 26
0 11 -17 11 -17 4 2 -3 11 -6 28 -6 38 0 9 -3 15 -8 12 -4 -3 -11 1 -14 7 -3
7 -3 3 0 -9z"/>
<path d="M1322 2400 c0 -14 2 -19 5 -12 2 6 2 18 0 25 -3 6 -5 1 -5 -13z"/>
<path d="M1576 2408 c-6 -4 4 -8 23 -8 20 0 39 -7 47 -17 13 -17 15 -17 27 -1
7 9 29 18 48 20 18 2 -4 6 -50 8 -45 3 -88 2 -95 -2z"/>
<path d="M1791 2404 c0 -11 3 -14 6 -6 3 7 2 16 -1 19 -3 4 -6 -2 -5 -13z"/>
<path d="M1110 2395 c-17 -20 -5 -62 20 -70 28 -9 60 12 60 38 0 24 -17 47
-34 47 -6 0 -3 -5 7 -11 24 -14 22 -56 -3 -64 -41 -13 -69 43 -32 64 9 6 12
11 6 11 -6 0 -17 -7 -24 -15z"/>
<path d="M2202 2403 c0 -5 -2 -16 -7 -26 -4 -10 -5 -21 -1 -24 3 -4 6 1 6 10
0 22 9 22 26 0 11 -15 12 -13 2 15 -7 17 -16 32 -20 32 -4 0 -7 -3 -6 -7z"/>
<path d="M2880 2395 c-19 -22 -8 -25 13 -3 9 10 13 18 8 18 -5 0 -14 -7 -21
-15z"/>
<path d="M2934 2397 c24 -18 17 -48 -14 -64 -16 -8 -19 -13 -9 -13 19 0 49 31
49 51 0 17 -19 39 -34 39 -5 0 -2 -6 8 -13z"/>
<path d="M1273 2365 c0 -22 2 -30 4 -17 2 12 2 30 0 40 -3 9 -5 -1 -4 -23z"/>
<path d="M1881 2393 c-1 -6 -4 -20 -7 -30 -5 -17 -5 -17 6 0 6 10 9 23 6 30
-3 9 -5 9 -5 0z"/>
<path d="M2387 2393 c18 -2 50 -2 70 0 21 2 7 4 -32 4 -38 0 -55 -2 -38 -4z"/>
<path d="M2686 2383 c-6 -14 -5 -15 5 -6 7 7 10 15 7 18 -3 3 -9 -2 -12 -12z"/>
<path d="M3043 2365 c0 -22 2 -30 4 -17 2 12 2 30 0 40 -3 9 -5 -1 -4 -23z"/>
<path d="M3611 2390 c0 -8 4 -22 9 -30 12 -18 12 -2 0 25 -6 13 -9 15 -9 5z"/>
<path d="M4158 2393 c17 -2 47 -2 65 0 17 2 3 4 -33 4 -36 0 -50 -2 -32 -4z"/>
<path d="M1136 2383 c-12 -12 -6 -33 9 -33 8 0 15 6 15 14 0 17 -14 28 -24 19z"/>
<path d="M1906 2375 c-3 -8 -1 -15 4 -15 6 0 10 7 10 15 0 8 -2 15 -4 15 -2 0
-6 -7 -10 -15z"/>
<path d="M2080 2375 c-7 -9 -11 -17 -9 -20 3 -2 10 5 17 15 14 24 10 26 -8 5z"/>
<path d="M2130 2386 c0 -2 7 -7 16 -10 8 -3 12 -2 9 4 -6 10 -25 14 -25 6z"/>
<path d="M2901 2376 c-9 -10 -9 -16 -1 -21 17 -10 37 12 24 25 -8 8 -15 6 -23
-4z"/>
<path d="M3581 2374 c0 -11 3 -14 6 -6 3 7 2 16 -1 19 -3 4 -6 -2 -5 -13z"/>
<path d="M2870 2351 c0 -6 4 -13 10 -16 6 -3 7 1 4 9 -7 18 -14 21 -14 7z"/>
<path d="M3251 2344 c0 -11 3 -14 6 -6 3 7 2 16 -1 19 -3 4 -6 -2 -5 -13z"/>
<path d="M3271 2344 c0 -11 3 -14 6 -6 3 7 2 16 -1 19 -3 4 -6 -2 -5 -13z"/>
<path d="M1160 2083 c0 -176 -10 -203 -82 -225 -38 -11 -2 -13 286 -16 181 -1
331 0 334 2 9 10 93 249 88 253 -3 3 -16 -17 -30 -45 -34 -67 -71 -109 -120
-135 -37 -19 -59 -22 -208 -25 l-168 -4 0 171 0 171 -50 0 -50 0 0 -147z"/>
<path d="M2032 2081 c-51 -121 -71 -156 -103 -185 -21 -20 -49 -36 -62 -36
-12 0 -29 -5 -37 -10 -10 -6 40 -10 150 -10 98 0 160 4 155 9 -6 5 -19 11 -30
13 -10 2 -26 15 -34 30 -14 25 -12 34 38 165 73 189 70 173 24 173 l-39 0 -62
-149z"/>
<path d="M2641 2148 c88 -236 85 -226 69 -256 -9 -15 -25 -28 -35 -30 -11 -2
-24 -8 -29 -13 -6 -5 64 -9 175 -9 122 0 179 4 169 10 -8 5 -25 10 -37 10 -13
0 -40 16 -62 35 -31 28 -51 64 -101 185 l-63 150 -58 0 -58 0 30 -82z"/>
<path d="M3200 2085 c0 -186 -7 -201 -105 -233 -22 -8 16 -11 148 -11 97 -1
177 1 177 4 0 2 -18 9 -39 15 -73 19 -81 41 -81 216 l0 154 -50 0 -50 0 0
-145z"/>
<path d="M3555 2203 c58 -89 164 -232 198 -266 60 -60 132 -89 240 -95 66 -4
88 -2 83 7 -4 6 -18 11 -32 11 -74 0 -168 81 -294 255 l-84 115 -64 0 -64 0
17 -27z"/>
<path d="M1143 1720 c0 -36 2 -50 4 -32 2 17 2 47 0 65 -2 17 -4 3 -4 -33z"/>
<path d="M2743 1720 c0 -36 2 -50 4 -32 2 17 2 47 0 65 -2 17 -4 3 -4 -33z"/>
<path d="M2789 1748 c4 -28 6 -29 9 -9 2 13 0 27 -5 32 -6 6 -7 -3 -4 -23z"/>
<path d="M1766 1757 c3 -10 9 -15 12 -12 3 3 0 11 -7 18 -10 9 -11 8 -5 -6z"/>
<path d="M1321 1723 c-1 -23 3 -44 7 -47 4 -2 6 12 4 32 -5 56 -10 62 -11 15z"/>
<path d="M1550 1730 c12 -19 24 -43 27 -52 3 -10 10 -18 15 -18 6 0 3 11 -6
25 -9 14 -14 30 -11 36 4 5 2 8 -4 7 -5 -2 -17 6 -26 17 -9 11 -7 4 5 -15z"/>
<path d="M1580 1749 c0 -5 5 -7 10 -4 6 3 10 8 10 11 0 2 -4 4 -10 4 -5 0 -10
-5 -10 -11z"/>
<path d="M2171 1723 c-1 -23 3 -44 7 -47 4 -2 6 12 4 32 -5 56 -10 62 -11 15z"/>
<path d="M2382 1710 c1 -44 2 -47 5 -17 l4 38 40 -31 39 -32 -2 49 c-1 45 -2
46 -5 9 l-4 -39 -40 39 -39 38 2 -54z"/>
<path d="M3120 1755 c0 -5 5 -17 10 -25 5 -8 10 -10 10 -5 0 6 -5 17 -10 25
-5 8 -10 11 -10 5z"/>
<path d="M3333 1710 c0 -30 2 -43 4 -27 2 15 2 39 0 55 -2 15 -4 2 -4 -28z"/>
<path d="M3476 1745 c4 -8 8 -15 10 -15 2 0 4 7 4 15 0 8 -4 15 -10 15 -5 0
-7 -7 -4 -15z"/>
<path d="M3540 1745 c0 -8 2 -15 4 -15 2 0 6 7 10 15 3 8 1 15 -4 15 -6 0 -10
-7 -10 -15z"/>
<path d="M3881 1713 c0 -29 3 -53 7 -53 4 0 6 17 4 38 -6 64 -10 69 -11 15z"/>
<path d="M3716 1737 c3 -10 9 -15 12 -12 3 3 0 11 -7 18 -10 9 -11 8 -5 -6z"/>
<path d="M1943 1725 c-3 -9 -3 -18 -1 -21 3 -3 8 4 11 16 6 23 -1 27 -10 5z"/>
<path d="M2028 1700 c2 -22 7 -40 11 -40 4 0 5 18 3 40 -2 22 -7 40 -11 40 -4
0 -5 -18 -3 -40z"/>
<path d="M1781 1720 c0 -8 6 -26 15 -40 l15 -25 -7 25 c-3 14 -10 32 -15 40
-7 13 -8 13 -8 0z"/>
<path d="M1736 1705 c-9 -26 -7 -32 5 -12 6 10 9 21 6 23 -2 3 -7 -2 -11 -11z"/>
<path d="M1971 1700 c14 -31 19 -36 19 -24 0 6 -7 19 -16 30 -14 18 -14 18 -3
-6z"/>
<path d="M2770 1714 c1 -13 29 -48 34 -43 2 2 -4 15 -15 28 -10 13 -19 19 -19
15z"/>
<path d="M3490 1714 c0 -6 7 -19 16 -30 14 -18 14 -18 3 6 -14 31 -19 36 -19
24z"/>
<path d="M3682 1685 c-6 -14 -8 -25 -3 -25 8 0 23 41 17 47 -1 2 -8 -8 -14
-22z"/>
<path d="M3736 1690 c7 -28 12 -35 18 -29 2 2 -2 15 -10 29 l-15 25 7 -25z"/>
<path d="M1530 1675 c-7 -9 -8 -15 -2 -15 5 0 12 7 16 15 3 8 4 15 2 15 -2 0
-9 -7 -16 -15z"/>
<path d="M3150 1680 c0 -5 5 -10 11 -10 5 0 7 5 4 10 -3 6 -8 10 -11 10 -2 0
-4 -4 -4 -10z"/>
<path d="M1943 1500 c0 -36 2 -50 4 -32 2 17 2 47 0 65 -2 17 -4 3 -4 -33z"/>
<path d="M1988 1527 c-3 -19 -2 -25 4 -19 6 6 8 18 6 28 -3 14 -5 12 -10 -9z"/>
<path d="M2543 1485 c0 -33 2 -45 4 -27 2 18 2 45 0 60 -2 15 -4 0 -4 -33z"/>
<path d="M2693 1490 c0 -30 2 -43 4 -27 2 15 2 39 0 55 -2 15 -4 2 -4 -28z"/>
<path d="M3103 1490 c0 -30 2 -43 4 -27 2 15 2 39 0 55 -2 15 -4 2 -4 -28z"/>
<path d="M2322 1518 c-17 -17 -15 -43 5 -59 15 -13 15 -12 2 9 -11 18 -11 26
-1 42 14 23 12 26 -6 8z"/>
<path d="M2862 1490 c0 -14 2 -19 5 -12 2 6 2 18 0 25 -3 6 -5 1 -5 -13z"/>
<path d="M2166 1467 c3 -10 9 -15 12 -12 3 3 0 11 -7 18 -10 9 -11 8 -5 -6z"/>
</g>
</svg>
